<svg xmlns="http://www.w3.org/2000/svg" xmlns:xlink="http://www.w3.org/1999/xlink" width="462.307" height="244.498" viewBox="0 0 462.307 244.498">
  <defs>
    <clipPath id="clip-path">
      <circle id="Ellipse_8" data-name="Ellipse 8" cx="79.186" cy="79.186" r="79.186" transform="translate(331.924 196.154)" fill="#0080ff"/>
    </clipPath>
  </defs>
  <g id="Group_40" data-name="Group 40" transform="translate(-2.814 -4.945)">
    <g id="Group_38" data-name="Group 38" transform="translate(-177 -148)">
      <path id="Path_4" data-name="Path 4" d="M562.111,199.982a79.473,79.473,0,0,1,11.049-2.54,71.051,71.051,0,0,1,11.3-1.016,55.064,55.064,0,0,1,11.3,1.143,30.26,30.26,0,0,1,9.779,3.81,19.458,19.458,0,0,1,6.858,7.239,23.321,23.321,0,0,1,2.54,11.43v67.564h22.606a46.462,46.462,0,0,1,3.048,7.366,30.329,30.329,0,0,1,1.524,9.652q0,9.655-4.318,13.716a15.3,15.3,0,0,1-10.922,4.064H614.943v29.972q-2.8.507-8.381,1.4a68.221,68.221,0,0,1-10.669.889,86.014,86.014,0,0,1-9.906-.508,16.656,16.656,0,0,1-7.239-2.413,11.9,11.9,0,0,1-4.445-5.461,25.007,25.007,0,0,1-1.524-9.652V322.41H509.025a28.127,28.127,0,0,1-10.033-9.017,24.768,24.768,0,0,1-4.191-14.605,50.462,50.462,0,0,1,1.27-10.668,27.547,27.547,0,0,1,4.318-10.16Zm12.954,39.878H574.3l-33.782,47.752h34.544Z" fill="#0080ff"/>
    </g>
    <circle id="Ellipse_9" data-name="Ellipse 9" cx="122.249" cy="122.249" r="122.249" transform="translate(111.861 4.945)" fill="#ffe33e"/>
    <g id="Group_39" data-name="Group 39" transform="translate(-177 -148)">
      <g id="Group_5" data-name="Group 5">
        <path id="Path_5" data-name="Path 5" d="M247.125,199.982a79.441,79.441,0,0,1,11.049-2.54,70.923,70.923,0,0,1,11.3-1.016,55.048,55.048,0,0,1,11.3,1.143,30.256,30.256,0,0,1,9.78,3.81,19.458,19.458,0,0,1,6.858,7.239,23.332,23.332,0,0,1,2.54,11.43v67.563h22.605a46.329,46.329,0,0,1,3.048,7.367,30.292,30.292,0,0,1,1.525,9.652q0,9.655-4.319,13.716a15.3,15.3,0,0,1-10.921,4.064H299.957v29.972q-2.8.506-8.382,1.4a68.089,68.089,0,0,1-10.669.89,86.007,86.007,0,0,1-9.9-.508,16.656,16.656,0,0,1-7.239-2.413,11.9,11.9,0,0,1-4.446-5.461,25.035,25.035,0,0,1-1.523-9.652V322.41H194.039a28.136,28.136,0,0,1-10.033-9.017,24.769,24.769,0,0,1-4.192-14.605,50.4,50.4,0,0,1,1.271-10.668,27.563,27.563,0,0,1,4.317-10.16Zm12.954,39.878h-.763l-33.781,47.751h34.544Z" fill="#0080ff"/>
      </g>
      <g id="Group_12" data-name="Group 12">
        <circle id="Ellipse_2" data-name="Ellipse 2" cx="79.186" cy="79.186" r="79.186" transform="translate(331.924 196.154)" fill="#0080ff"/>
        <g id="Group_11" data-name="Group 11" clip-path="url(#clip-path)">
          <g id="Group_10" data-name="Group 10">
            <g id="Group_6" data-name="Group 6">
              <path id="Path_6" data-name="Path 6" d="M460.831,285.653s-1.092-.863-.526-1.784c.54-.88-.514-1.223-1.04-1.313a.113.113,0,0,1-.03-.213c.579-.284,1.822-.714,2.06.68,0,0,.115,2.431.593,2.9Z" fill="#edb05f" stroke="#000" stroke-miterlimit="10" stroke-width="1"/>
              <path id="Path_7" data-name="Path 7" d="M459.182,282.379s1.359-.3,1.8.4" fill="none" stroke="#000" stroke-miterlimit="10" stroke-width="1"/>
            </g>
            <circle id="Ellipse_3" data-name="Ellipse 3" cx="19.663" cy="19.663" r="19.663" transform="translate(392.977 263.207)" fill="#fff" stroke="#000" stroke-miterlimit="10" stroke-width="1"/>
            <ellipse id="Ellipse_4" data-name="Ellipse 4" cx="4.824" cy="3.473" rx="4.824" ry="3.473" transform="translate(478.623 285.065) rotate(-61.148)" fill="#edb05f" stroke="#000" stroke-miterlimit="10" stroke-width="1"/>
            <path id="Path_8" data-name="Path 8" d="M452.661,275.283,422.789,281.9s-8.706,2.1-10.149.965" fill="none" stroke="#000" stroke-miterlimit="10" stroke-width="1"/>
            <path id="Path_9" data-name="Path 9" d="M472.6,291.478a3.68,3.68,0,0,0-.693,4.009,3.523,3.523,0,0,1,.08,2.718,10.742,10.742,0,0,1-6.238,6.225l11.148,8.2s7.007-10.357,6.357-12.122-1.757-11.148-1.757-11.148Z" fill="#ff4040" stroke="#000" stroke-miterlimit="10" stroke-width="1"/>
            <path id="Path_10" data-name="Path 10" d="M473.927,285.091c1.512.044,2.062-.131,3.52-.028,1.425.1,4.511.681,4.464,3.109-.059,3.027-6.331,3.316-6.331,3.316l-16.322-.059A56.887,56.887,0,0,1,443.1,275.261l1.249-.889,13.216,9.435a10.555,10.555,0,0,0,8,2.155A75.139,75.139,0,0,1,473.927,285.091Z" fill="#ff4040" stroke="#000" stroke-miterlimit="10" stroke-width="1"/>
            <path id="Path_11" data-name="Path 11" d="M472.862,318.132s-2,3.118-4.324-2.731l-1.229-2.54A10.4,10.4,0,0,1,472.862,318.132Z" fill="none" stroke="#000" stroke-miterlimit="10" stroke-width="1"/>
            <path id="Path_12" data-name="Path 12" d="M440.511,276.519c-.551-4.05.647-5.606,3.8-5.263a9.258,9.258,0,0,1,3.437,1.131c2.688,1.473,8.786,4.995,11.3,7.918.918,1.069,1.789,3.144,1.092,4.368l-.137.3" fill="none" stroke="#000" stroke-miterlimit="10" stroke-width="1"/>
            <g id="Group_7" data-name="Group 7">
              <path id="Path_13" data-name="Path 13" d="M444.654,274.158s-2.315-3.985-4.214-3.509a.845.845,0,0,0-.582.541c-.165.456-.587,2.531,1.2,1.638,1.049-.526.558.482.87.907a5.835,5.835,0,0,1,.946,1.694Z" fill="#edb05f" stroke="#000" stroke-miterlimit="10" stroke-width="1"/>
              <path id="Path_14" data-name="Path 14" d="M439.938,271.188s1.359-.3,1.8.4" fill="none" stroke="#000" stroke-miterlimit="10" stroke-width="1"/>
              <path id="Path_15" data-name="Path 15" d="M439.733,271.731s1.524-.443,1.869-.046" fill="none" stroke="#000" stroke-miterlimit="10" stroke-width="1"/>
              <path id="Path_16" data-name="Path 16" d="M439.776,272.48s1.309-.794,1.762-.708" fill="none" stroke="#000" stroke-miterlimit="10" stroke-width="1"/>
              <path id="Path_17" data-name="Path 17" d="M440.081,273.042a7.011,7.011,0,0,0,1.231-.968" fill="none" stroke="#000" stroke-miterlimit="10" stroke-width="1"/>
            </g>
            <path id="Path_18" data-name="Path 18" d="M485.052,276.583s6.319,2.271,6.282,7-3.29,5.807-1.473,8.968,3.316,4.728,6.2,4.8c6.428.167,8.824,10.56,1.267,13.947-8.668,3.885-13.5-7.161-15.808-15.314-1.051-3.706-1.18-8.462,1.279-11.427a1.924,1.924,0,0,1,1.294-.868c.4-.039.992.709,1.839-.1.761-.727.111-1.4-.485-1.276a.155.155,0,0,1-.167-.214c.774-1.914,1.18-3.517.545-3.816,0,0-.666-.269-.077-.832C485.752,277.451,484.277,276.48,485.052,276.583Z"/>
            <g id="Group_8" data-name="Group 8">
              <path id="Path_19" data-name="Path 19" d="M449.027,307.392c-.6.222-11.672,5.206-13.482,7.329-1.863,2.185-1.184,2.145-3.316,1.188-1.487-.668-3.5-1.587-4.585-2.082a.093.093,0,0,1,.057-.176c1.633.318,5.2.86,5.948-.279.98-1.489,15.671-12.885,15.671-12.885a21.553,21.553,0,0,1,2.832-4.423c.033-.041,5.936-6,2.982,4.884C454.987,301.491,449.045,307.385,449.027,307.392Z" fill="#edb05f" stroke="#000" stroke-miterlimit="10" stroke-width="1"/>
              <path id="Path_20" data-name="Path 20" d="M432.229,315.909h0a1.8,1.8,0,0,1-1.4.057l-.569-.213a1.963,1.963,0,0,1-1.172-1.21l-.023-.068Z" fill="none" stroke="#000" stroke-miterlimit="10" stroke-width="1"/>
            </g>
            <path id="Path_21" data-name="Path 21" d="M438.444,278.578,428.6,317.273l39.934-1.872" fill="none" stroke="#000" stroke-miterlimit="10" stroke-width="1"/>
            <circle id="Ellipse_5" data-name="Ellipse 5" cx="19.663" cy="19.663" r="19.663" transform="translate(434.674 321.775)" fill="#fff" stroke="#000" stroke-miterlimit="10" stroke-width="1"/>
            <path id="Path_22" data-name="Path 22" d="M460.181,315.792l-5.844,25.646,23.787,4.974a2.435,2.435,0,0,0,.27.028,3.528,3.528,0,0,0,3.507-4.278,9.909,9.909,0,0,0-1.047-3.2L468.848,322.1" fill="none" stroke="#000" stroke-miterlimit="10" stroke-width="1"/>
            <g id="Group_9" data-name="Group 9">
              <path id="Path_23" data-name="Path 23" d="M449.709,309.554l-4.281-.319a.117.117,0,0,0-.073.017c-.746.442-13.935,8.282-15.851,11.572-1.973,3.386-1.071,3.169-4.166,2.4-2.16-.537-5.089-1.283-6.663-1.685a.127.127,0,0,1,.034-.25c2.271.031,7.191-.105,7.922-1.817.955-2.237,17.232-17.155,17.232-17.155s4.3-4.691,7.285-2.494c.057.042,1.2,2.925-.144,2.582-.745-.19-2.14,3.43-1.165,6.99A.125.125,0,0,1,449.709,309.554Z" fill="#edb05f" stroke="#000" stroke-miterlimit="10" stroke-width="1"/>
              <path id="Path_24" data-name="Path 24" d="M425.338,323.224h0a2.459,2.459,0,0,1-1.867.416l-.816-.148a2.681,2.681,0,0,1-1.867-1.342l-.047-.085Z" fill="none" stroke="#000" stroke-miterlimit="10" stroke-width="1"/>
            </g>
            <path id="Path_25" data-name="Path 25" d="M466.021,304.806s-8.36-10.947-10.653-10.589-19.7,25.119-5.967,20.652c0,0,11.083-4.431,15.19-3.534,1.084.237,6.516,3.3,7.651,5.888s5.806-.594,4.659-4.591Z" fill="#9e22ff" stroke="#000" stroke-miterlimit="10" stroke-width="1"/>
            <circle id="Ellipse_6" data-name="Ellipse 6" cx="1.384" cy="1.384" r="1.384" transform="translate(411.256 281.486)"/>
            <circle id="Ellipse_7" data-name="Ellipse 7" cx="1.384" cy="1.384" r="1.384" transform="translate(452.953 340.054)"/>
          </g>
        </g>
      </g>
    </g>
    <path id="Path_52" data-name="Path 52" d="M354.144,289.1,385.3,248.584a36.2,36.2,0,0,1,5.8-6.416,31.42,31.42,0,0,1,9.8-4.816c13.238-4.454,29.17-6.055,40.015,2.746" transform="translate(-177 -148)" fill="none" stroke="#0080ff" stroke-miterlimit="10" stroke-width="1"/>
  </g>
</svg>
