<svg xmlns="http://www.w3.org/2000/svg" width="11.306" height="9.308" viewBox="0 0 11.306 9.308">
  <g id="Group_381" data-name="Group 381" transform="translate(-281 -183.541)">
    <g id="arrow-point-to-right" transform="translate(183.861 183.541)">
      <path id="Path_647" data-name="Path 647" d="M102.253,5.114l-4,4a.652.652,0,0,1-.922-.922l3.541-3.541L97.329,1.112a.652.652,0,0,1,.922-.922l4,4a.652.652,0,0,1,0,.922Z" transform="translate(0)" fill="#adb0b3"/>
    </g>
    <g id="arrow-point-to-right-2" data-name="arrow-point-to-right" transform="translate(189.861 183.541)">
      <path id="Path_647-2" data-name="Path 647" d="M102.253,5.114l-4,4a.652.652,0,0,1-.922-.922l3.541-3.541L97.329,1.112a.652.652,0,0,1,.922-.922l4,4a.652.652,0,0,1,0,.922Z" transform="translate(0)" fill="#adb0b3"/>
    </g>
  </g>
</svg>
