<?xml version="1.0" encoding="UTF-8"?>
<svg xmlns="http://www.w3.org/2000/svg" xmlns:xlink="http://www.w3.org/1999/xlink" width="16px" height="3px" viewBox="0 0 15 3" version="1.1">
<g id="surface1">
<path style=" stroke:none;fill-rule:nonzero;fill:rgb(35.686275%,19.215686%,59.607843%);fill-opacity:1;" d="M 14.878906 0.253906 C 14.667969 -0.0351562 14.300781 0 14.085938 0 L 13.375 0 C 13.34375 0 13.3125 0.015625 13.289062 0.0390625 C 13.261719 0.0664062 13.25 0.101562 13.25 0.140625 L 13.25 0.550781 C 13.25 0.597656 13.261719 0.640625 13.289062 0.679688 C 13.3125 0.707031 13.34375 0.71875 13.375 0.71875 L 14.21875 0.71875 C 14.273438 0.71875 14.316406 0.757812 14.324219 0.816406 L 14.328125 0.816406 L 14.328125 0.820312 C 14.328125 0.828125 14.328125 0.832031 14.328125 0.839844 L 14.328125 1.71875 C 14.328125 1.75 14.339844 1.785156 14.363281 1.808594 C 14.390625 1.835938 14.425781 1.847656 14.460938 1.847656 L 14.847656 1.847656 C 14.890625 1.847656 14.933594 1.835938 14.972656 1.808594 C 14.996094 1.785156 15.007812 1.75 15.007812 1.714844 L 15.007812 1.066406 C 15.007812 0.828125 15.023438 0.457031 14.878906 0.253906 "/>
<path style=" stroke:none;fill-rule:nonzero;fill:rgb(17.254902%,24.313725%,42.352941%);fill-opacity:1;" d="M 0.726562 2.644531 C 0.796875 2.648438 0.863281 2.625 0.917969 2.574219 C 0.96875 2.53125 0.996094 2.460938 0.996094 2.394531 L 1.394531 2.394531 C 1.394531 2.503906 1.363281 2.613281 1.308594 2.707031 C 1.25 2.804688 1.164062 2.878906 1.066406 2.929688 C 0.964844 2.984375 0.847656 3.011719 0.730469 3.007812 C 0.503906 3.007812 0.324219 2.933594 0.191406 2.777344 C 0.0585938 2.625 -0.0078125 2.414062 -0.0078125 2.140625 L -0.0078125 2.113281 C -0.0078125 1.851562 0.0585938 1.644531 0.1875 1.488281 C 0.320312 1.332031 0.5 1.253906 0.730469 1.253906 C 0.929688 1.253906 1.089844 1.316406 1.210938 1.4375 C 1.332031 1.554688 1.394531 1.714844 1.394531 1.917969 L 0.996094 1.917969 C 0.996094 1.835938 0.96875 1.761719 0.917969 1.703125 C 0.867188 1.648438 0.796875 1.617188 0.722656 1.621094 C 0.621094 1.621094 0.546875 1.660156 0.496094 1.734375 C 0.445312 1.8125 0.417969 1.9375 0.417969 2.109375 L 0.417969 2.15625 C 0.417969 2.328125 0.445312 2.453125 0.496094 2.53125 C 0.546875 2.605469 0.621094 2.644531 0.726562 2.644531 Z M 2.09375 2.976562 L 1.664062 2.976562 L 1.664062 0.578125 L 2.09375 0.578125 Z M 3.375 2.976562 C 3.351562 2.929688 3.335938 2.878906 3.332031 2.824219 C 3.226562 2.949219 3.09375 3.007812 2.925781 3.007812 C 2.769531 3.007812 2.640625 2.960938 2.535156 2.863281 C 2.433594 2.773438 2.378906 2.640625 2.382812 2.503906 C 2.382812 2.324219 2.445312 2.1875 2.570312 2.089844 C 2.695312 1.992188 2.878906 1.945312 3.117188 1.945312 L 3.3125 1.945312 L 3.3125 1.847656 C 3.316406 1.78125 3.296875 1.714844 3.253906 1.660156 C 3.21875 1.613281 3.15625 1.589844 3.074219 1.589844 C 3.003906 1.589844 2.949219 1.609375 2.90625 1.644531 C 2.863281 1.679688 2.84375 1.738281 2.84375 1.792969 L 2.417969 1.792969 C 2.417969 1.695312 2.445312 1.601562 2.503906 1.523438 C 2.566406 1.433594 2.648438 1.367188 2.746094 1.324219 C 2.855469 1.277344 2.976562 1.253906 3.097656 1.253906 C 3.296875 1.253906 3.453125 1.308594 3.570312 1.410156 C 3.683594 1.515625 3.742188 1.664062 3.742188 1.855469 L 3.742188 2.585938 C 3.742188 2.746094 3.765625 2.867188 3.804688 2.949219 L 3.804688 2.976562 Z M 3.019531 2.664062 C 3.082031 2.664062 3.140625 2.648438 3.195312 2.617188 C 3.246094 2.59375 3.285156 2.550781 3.3125 2.5 L 3.3125 2.207031 L 3.152344 2.207031 C 2.9375 2.207031 2.824219 2.285156 2.8125 2.441406 L 2.808594 2.46875 C 2.808594 2.523438 2.828125 2.574219 2.867188 2.609375 C 2.910156 2.648438 2.964844 2.667969 3.019531 2.664062 Z M 4.941406 2.511719 C 4.941406 2.453125 4.910156 2.402344 4.863281 2.378906 C 4.808594 2.347656 4.726562 2.320312 4.613281 2.292969 C 4.230469 2.210938 4.039062 2.039062 4.039062 1.78125 C 4.039062 1.632812 4.097656 1.507812 4.21875 1.40625 C 4.335938 1.304688 4.488281 1.253906 4.679688 1.253906 C 4.882812 1.253906 5.046875 1.304688 5.167969 1.40625 C 5.285156 1.5 5.355469 1.644531 5.351562 1.800781 L 4.921875 1.800781 C 4.925781 1.742188 4.902344 1.683594 4.863281 1.640625 C 4.824219 1.597656 4.761719 1.578125 4.679688 1.578125 C 4.605469 1.578125 4.550781 1.59375 4.511719 1.628906 C 4.472656 1.660156 4.453125 1.707031 4.453125 1.761719 C 4.453125 1.808594 4.476562 1.855469 4.519531 1.882812 C 4.566406 1.910156 4.640625 1.9375 4.746094 1.960938 C 4.839844 1.980469 4.929688 2.003906 5.015625 2.035156 C 5.242188 2.125 5.355469 2.277344 5.355469 2.492188 C 5.355469 2.644531 5.292969 2.769531 5.167969 2.867188 C 5.042969 2.960938 4.878906 3.007812 4.683594 3.007812 C 4.558594 3.011719 4.4375 2.984375 4.324219 2.933594 C 4.226562 2.886719 4.140625 2.816406 4.078125 2.726562 C 4.019531 2.640625 3.988281 2.542969 3.988281 2.441406 L 4.394531 2.441406 C 4.394531 2.511719 4.425781 2.578125 4.480469 2.625 C 4.53125 2.667969 4.601562 2.6875 4.691406 2.6875 C 4.773438 2.6875 4.835938 2.671875 4.875 2.640625 C 4.917969 2.609375 4.941406 2.5625 4.941406 2.511719 Z M 6.5 2.511719 C 6.5 2.453125 6.46875 2.402344 6.421875 2.378906 C 6.371094 2.347656 6.285156 2.320312 6.171875 2.292969 C 5.789062 2.210938 5.601562 2.039062 5.601562 1.78125 C 5.601562 1.632812 5.660156 1.507812 5.777344 1.40625 C 5.894531 1.304688 6.050781 1.253906 6.242188 1.253906 C 6.445312 1.253906 6.605469 1.304688 6.726562 1.40625 C 6.847656 1.5 6.914062 1.644531 6.910156 1.800781 L 6.484375 1.800781 C 6.484375 1.742188 6.464844 1.683594 6.425781 1.640625 C 6.382812 1.597656 6.324219 1.578125 6.238281 1.578125 C 6.167969 1.578125 6.109375 1.59375 6.070312 1.628906 C 6.035156 1.660156 6.011719 1.707031 6.011719 1.761719 C 6.011719 1.808594 6.039062 1.855469 6.078125 1.882812 C 6.125 1.910156 6.199219 1.9375 6.308594 1.960938 C 6.398438 1.980469 6.488281 2.003906 6.578125 2.035156 C 6.804688 2.125 6.914062 2.277344 6.914062 2.492188 C 6.914062 2.644531 6.851562 2.769531 6.726562 2.867188 C 6.601562 2.960938 6.441406 3.007812 6.242188 3.007812 C 6.117188 3.011719 5.996094 2.984375 5.882812 2.933594 C 5.785156 2.886719 5.703125 2.816406 5.640625 2.726562 C 5.582031 2.640625 5.550781 2.542969 5.550781 2.441406 L 5.957031 2.441406 C 5.957031 2.511719 5.988281 2.578125 6.039062 2.625 C 6.09375 2.667969 6.164062 2.6875 6.25 2.6875 C 6.332031 2.6875 6.394531 2.671875 6.4375 2.640625 C 6.476562 2.609375 6.5 2.5625 6.5 2.511719 Z M 8.09375 1.710938 C 8.042969 1.703125 7.988281 1.699219 7.9375 1.699219 C 7.777344 1.699219 7.667969 1.753906 7.621094 1.871094 L 7.621094 2.976562 L 7.191406 2.976562 L 7.191406 1.285156 L 7.597656 1.285156 L 7.609375 1.488281 C 7.695312 1.332031 7.8125 1.253906 7.964844 1.253906 C 8.011719 1.253906 8.054688 1.261719 8.097656 1.273438 Z M 8.179688 2.117188 C 8.175781 1.960938 8.207031 1.808594 8.269531 1.667969 C 8.328125 1.539062 8.417969 1.433594 8.535156 1.363281 C 8.65625 1.289062 8.792969 1.25 8.933594 1.253906 C 9.152344 1.253906 9.328125 1.324219 9.464844 1.464844 C 9.601562 1.605469 9.675781 1.792969 9.695312 2.035156 L 9.695312 2.148438 C 9.695312 2.410156 9.628906 2.617188 9.492188 2.773438 C 9.351562 2.929688 9.167969 3.007812 8.9375 3.007812 C 8.707031 3.007812 8.523438 2.929688 8.382812 2.773438 C 8.246094 2.617188 8.179688 2.40625 8.179688 2.136719 Z M 8.605469 2.148438 C 8.605469 2.308594 8.636719 2.433594 8.691406 2.515625 C 8.75 2.601562 8.832031 2.644531 8.9375 2.644531 C 9.035156 2.648438 9.125 2.601562 9.179688 2.519531 C 9.238281 2.433594 9.269531 2.300781 9.269531 2.117188 C 9.269531 1.957031 9.238281 1.835938 9.179688 1.75 C 9.125 1.664062 9.03125 1.617188 8.933594 1.621094 C 8.839844 1.617188 8.746094 1.664062 8.691406 1.75 C 8.636719 1.835938 8.605469 1.96875 8.605469 2.148438 Z M 9.894531 2.117188 C 9.890625 1.960938 9.921875 1.808594 9.984375 1.667969 C 10.042969 1.539062 10.136719 1.433594 10.25 1.363281 C 10.371094 1.289062 10.511719 1.25 10.652344 1.253906 C 10.867188 1.253906 11.042969 1.324219 11.179688 1.464844 C 11.316406 1.605469 11.394531 1.792969 11.410156 2.035156 L 11.410156 2.148438 C 11.410156 2.410156 11.34375 2.617188 11.207031 2.773438 C 11.070312 2.929688 10.882812 3.007812 10.652344 3.007812 C 10.421875 3.007812 10.238281 2.929688 10.101562 2.773438 C 9.960938 2.617188 9.894531 2.40625 9.894531 2.136719 Z M 10.320312 2.148438 C 10.320312 2.308594 10.351562 2.433594 10.40625 2.515625 C 10.464844 2.601562 10.546875 2.644531 10.652344 2.644531 C 10.75 2.648438 10.839844 2.601562 10.894531 2.519531 C 10.953125 2.433594 10.984375 2.300781 10.984375 2.117188 C 10.984375 1.957031 10.953125 1.835938 10.894531 1.75 C 10.839844 1.664062 10.75 1.617188 10.652344 1.621094 C 10.554688 1.617188 10.460938 1.664062 10.40625 1.75 C 10.351562 1.835938 10.320312 1.96875 10.320312 2.148438 Z M 12.078125 1.285156 L 12.089844 1.476562 C 12.203125 1.328125 12.359375 1.253906 12.550781 1.253906 C 12.757812 1.253906 12.898438 1.339844 12.976562 1.511719 C 13.089844 1.339844 13.25 1.253906 13.457031 1.253906 C 13.632812 1.253906 13.761719 1.308594 13.847656 1.414062 C 13.929688 1.523438 13.972656 1.683594 13.972656 1.898438 L 13.972656 2.976562 L 13.542969 2.976562 L 13.542969 1.898438 C 13.542969 1.804688 13.527344 1.734375 13.492188 1.6875 C 13.453125 1.644531 13.390625 1.621094 13.300781 1.621094 C 13.175781 1.621094 13.085938 1.6875 13.035156 1.816406 L 13.035156 2.976562 L 12.609375 2.976562 L 12.609375 1.902344 C 12.609375 1.800781 12.589844 1.730469 12.554688 1.6875 C 12.515625 1.644531 12.457031 1.621094 12.367188 1.621094 C 12.246094 1.621094 12.15625 1.675781 12.105469 1.78125 L 12.105469 2.976562 L 11.675781 2.976562 L 11.675781 1.285156 Z M 12.078125 1.285156 "/>
</g>
</svg>
