<svg id="concern" xmlns="http://www.w3.org/2000/svg" width="24" height="24" viewBox="0 0 24 24">
  <path id="Path_193" data-name="Path 193" d="M0,0H24V24H0Z" fill="none" fill-rule="evenodd"/>
  <path id="Path_194" data-name="Path 194" d="M5.857,2h7.879a1.5,1.5,0,0,1,.969.355l4.764,4.029A1.5,1.5,0,0,1,20,7.529V20.083C20,21.874,19.98,22,18.143,22H5.857C4.02,22,4,21.874,4,20.083V3.917C4,2.126,4.02,2,5.857,2Z" fill="#3f4974" opacity="0.3"/>
  <path id="concern-2" data-name="concern" d="M9.887,7.639a.834.834,0,0,1-.722,1.25H.834a.834.834,0,0,1-.722-1.25L4.278.416a.834.834,0,0,1,1.444,0ZM5,6.146a.8.8,0,1,0,.8.8A.8.8,0,0,0,5,6.146ZM4.242,3.275l.129,2.361a.208.208,0,0,0,.208.2h.843a.208.208,0,0,0,.208-.2l.129-2.361a.208.208,0,0,0-.208-.22H4.45a.208.208,0,0,0-.208.22Z" transform="translate(6.999 7.176)" fill="#3f4974"/>
</svg>
