<svg xmlns="http://www.w3.org/2000/svg" width="16" height="16" viewBox="0 0 16 16">
  <g id="configure" transform="translate(-3 -3)">
    <path id="Path_201" data-name="Path 201" d="M16.887,9H17a2,2,0,0,1,0,4h-.057a.442.442,0,0,0-.318.742l.04.04a2,2,0,1,1-2.829,2.83l-.035-.035a.442.442,0,0,0-.747.31V17a2,2,0,0,1-4,0,.466.466,0,0,0-.323-.457.431.431,0,0,0-.473.081l-.04.04a2,2,0,1,1-2.83-2.829l.035-.035a.442.442,0,0,0-.31-.747H5a2,2,0,1,1,0-4,.466.466,0,0,0,.457-.323.431.431,0,0,0-.081-.473l-.04-.04a2,2,0,1,1,2.829-2.83l.035.035a.433.433,0,0,0,.478.087l.1-.02A.432.432,0,0,0,9,5.113V5a2,2,0,0,1,4,0v.057a.436.436,0,0,0,.269.4.431.431,0,0,0,.473-.081l.04-.04a2,2,0,1,1,2.83,2.829l-.035.035a.433.433,0,0,0-.087.478l.02.1A.432.432,0,0,0,16.887,9Z" fill="#3f4974" opacity="0.3"/>
    <path id="Path_202" data-name="Path 202" d="M12,15a3,3,0,1,0-3-3A3,3,0,0,0,12,15Z" transform="translate(-1 -1)" fill="#3f4974" fill-rule="evenodd"/>
  </g>
</svg>
