<svg xmlns="http://www.w3.org/2000/svg" width="16" height="16" viewBox="0 0 16 16">
  <g id="dashboard" transform="translate(-48 -128)">
    <rect id="Rectangle_35" data-name="Rectangle 35" width="7" height="7" rx="1.5" transform="translate(48 128)" fill="#7e89b9"/>
    <path id="Path_14" data-name="Path 14" d="M5.5,13h4A1.5,1.5,0,0,1,11,14.5v4A1.5,1.5,0,0,1,9.5,20h-4A1.5,1.5,0,0,1,4,18.5v-4A1.5,1.5,0,0,1,5.5,13Zm9-9h4A1.5,1.5,0,0,1,20,5.5v4A1.5,1.5,0,0,1,18.5,11h-4A1.5,1.5,0,0,1,13,9.5v-4A1.5,1.5,0,0,1,14.5,4Zm0,9h4A1.5,1.5,0,0,1,20,14.5v4A1.5,1.5,0,0,1,18.5,20h-4A1.5,1.5,0,0,1,13,18.5v-4A1.5,1.5,0,0,1,14.5,13Z" transform="translate(44 124)" fill="#7e89b9" opacity="0.3"/>
  </g>
</svg>
