<?xml version="1.0" encoding="utf-8"?>
<!-- Generator: Adobe Illustrator 15.0.0, SVG Export Plug-In . SVG Version: 6.00 Build 0)  -->
<!DOCTYPE svg PUBLIC "-//W3C//DTD SVG 1.1//EN" "http://www.w3.org/Graphics/SVG/1.1/DTD/svg11.dtd">
<svg version="1.1" id="Layer_1" xmlns="http://www.w3.org/2000/svg" xmlns:xlink="http://www.w3.org/1999/xlink" x="0px" y="0px"
	 width="18.84px" height="18.84px" viewBox="0 0 18.84 18.84" enable-background="new 0 0 18.84 18.84" xml:space="preserve">
<g id="search-stats" transform="translate(0 -0.001)">
	<path id="Path_873" fill="#FFFFFF" d="M8.395,3.665c-0.525,0-0.951,0.426-0.951,0.951v8.918c0.628,0.115,1.272,0.115,1.9,0V4.616
		C9.344,4.091,8.919,3.666,8.395,3.665z"/>
	<path id="Path_874" fill="#FFFFFF" d="M11.944,7.912c-0.525,0-0.951,0.426-0.951,0.951l0,0v4.07c0.785-0.449,1.439-1.096,1.9-1.873
		v-2.2C12.891,8.337,12.467,7.913,11.944,7.912z"/>
	<path id="Path_875" fill="#FFFFFF" d="M4.845,6.327c-0.525,0-0.951,0.426-0.951,0.951v3.782c0.46,0.778,1.115,1.424,1.9,1.873
		V7.279C5.794,6.754,5.37,6.328,4.845,6.327z"/>
	<path id="Path_876" fill="#FFFFFF" d="M18.29,15.626l-1.858-1.858l-0.916-0.916c2.454-3.925,1.261-9.097-2.664-11.551
		C8.926-1.153,3.754,0.04,1.3,3.965s-1.261,9.097,2.664,11.551c2.718,1.699,6.168,1.699,8.887,0l0.916,0.916l1.858,1.858
		c0.748,0.724,1.94,0.703,2.664-0.045C18.995,17.515,18.995,16.357,18.29,15.626L18.29,15.626z M3.8,12.989
		c-2.54-2.537-2.542-6.652-0.004-9.192c2.538-2.54,6.652-2.542,9.192-0.004c2.54,2.538,2.542,6.653,0.005,9.192
		c-0.002,0.002-0.004,0.004-0.005,0.005C10.45,15.525,6.338,15.525,3.8,12.989z"/>
</g>
</svg>
