<svg xmlns="http://www.w3.org/2000/svg" width="15.672" height="20.096" viewBox="0 0 15.672 20.096">
  <g id="clipboard_1_" data-name="clipboard (1)" transform="translate(-64.9 -11)">
    <g id="Group_348" data-name="Group 348" transform="translate(64.9 11)">
      <path id="Path_880" data-name="Path 880" d="M142.233,16.819h7.8a.74.74,0,0,0,.8-.656c0-.062-.578-3.391-.578-3.391a.766.766,0,0,0-.8-.566l-2.53,0v-.554a.82.82,0,0,0-1.607,0v.558l-2.534,0a.769.769,0,0,0-.8.566l-.562,3.293C141.384,16.663,141.987,16.819,142.233,16.819Z" transform="translate(-138.293 -11)" fill="#ff9850"/>
      <path id="Path_881" data-name="Path 881" d="M79.768,78.9h-1.1s.381,2.194.381,2.378a2.345,2.345,0,0,1-2.411,2.263h-7.8a2.33,2.33,0,0,1-2.382-2.62L66.8,78.9H65.7a.8.8,0,0,0-.8.8v15.7a.8.8,0,0,0,.8.8H79.768a.8.8,0,0,0,.8-.8V79.7A.8.8,0,0,0,79.768,78.9ZM76.631,92.025H68.841a.8.8,0,1,1,0-1.607h7.791a.8.8,0,1,1,0,1.607Zm0-4.523H68.841a.8.8,0,1,1,0-1.607h7.791a.8.8,0,1,1,0,1.607Z" transform="translate(-64.9 -76.116)" fill="#ff9850"/>
    </g>
  </g>
</svg>
