<?xml version="1.0" encoding="utf-8"?>
<!-- Generator: Adobe Illustrator 15.0.0, SVG Export Plug-In . SVG Version: 6.00 Build 0)  -->
<!DOCTYPE svg PUBLIC "-//W3C//DTD SVG 1.1//EN" "http://www.w3.org/Graphics/SVG/1.1/DTD/svg11.dtd">
<svg version="1.1" id="Layer_1" xmlns="http://www.w3.org/2000/svg" xmlns:xlink="http://www.w3.org/1999/xlink" x="0px" y="0px"
	 width="14.232px" height="18.25px" viewBox="0 0 14.232 18.25" enable-background="new 0 0 14.232 18.25" xml:space="preserve">
<g id="clipboard_1_" transform="translate(-64.9 -11)">
	<g id="Group_348" transform="translate(64.9 11)">
		<path id="Path_880" fill="#FFFFFF" d="M3.578,5.284h7.083c0.366,0.034,0.691-0.234,0.729-0.6c0-0.056-0.524-3.08-0.524-3.08
			c-0.088-0.321-0.39-0.536-0.723-0.514h-2.3v-0.5C7.762,0.187,7.368-0.073,6.965,0.009C6.672,0.068,6.444,0.297,6.384,0.59V1.1
			h-2.3C3.752,1.078,3.449,1.293,3.362,1.614l-0.51,2.99C2.808,5.143,3.355,5.284,3.578,5.284z"/>
		<path id="Path_881" fill="#FFFFFF" d="M13.5,2.529h-1c0,0,0.346,1.992,0.346,2.16c-0.04,1.171-1.019,2.09-2.189,2.056H3.579
			C2.411,6.781,1.435,5.863,1.4,4.695c-0.004-0.11,0.002-0.221,0.016-0.33l0.313-1.832h-1c-0.402,0-0.729,0.327-0.729,0.73v14.259
			c0,0.402,0.327,0.729,0.729,0.73H13.5c0.402-0.001,0.729-0.328,0.729-0.73V3.259C14.23,2.856,13.903,2.529,13.5,2.529z
			 M10.655,14.45H3.579c-0.403,0-0.73-0.326-0.731-0.729c0-0.403,0.326-0.73,0.729-0.73c0.001,0,0.001,0,0.002,0h7.075
			c0.403-0.001,0.73,0.325,0.731,0.729c0,0.402-0.326,0.73-0.729,0.73C10.656,14.45,10.656,14.45,10.655,14.45z M10.655,10.342
			H3.579c-0.403,0-0.73-0.326-0.731-0.729c0-0.403,0.326-0.73,0.729-0.731c0.001,0,0.001,0,0.002,0h7.075
			c0.403,0,0.73,0.326,0.731,0.729c0,0.403-0.326,0.731-0.729,0.731C10.656,10.342,10.656,10.342,10.655,10.342z"/>
	</g>
</g>
</svg>
