<svg id="Group_48" data-name="Group 48" xmlns="http://www.w3.org/2000/svg" width="20" height="20" viewBox="0 0 20 20">
  <rect id="Rectangle_392" data-name="Rectangle 392" width="20" height="20" fill="none"/>
  <path id="Path_28" data-name="Path 28" d="M10.223,16.821l-2.91,1.408L5.99,15.28l-3.134-.792.882-3.11L1.846,8.758,4.52,6.943l.235-3.224,3.216.328,2.252-2.318,2.252,2.318,3.216-.328.235,3.224L18.6,8.758l-1.892,2.621.882,3.11-3.134.792-1.324,2.949Z" transform="translate(-0.323 -0.302)" fill-rule="evenodd" opacity="0.3"/>
  <path id="Path_29" data-name="Path 29" d="M14.2,9.715Z" transform="translate(-1.463 -1.505)" fill-rule="evenodd"/>
  <path id="Path_30" data-name="Path 30" d="M12.833,10.165a2.708,2.708,0,1,1-2.708-2.708,2.706,2.706,0,0,1,2.708,2.708" transform="translate(-1.988 -1.994)" fill-rule="evenodd" opacity="0.3"/>
  <path id="Path_31" data-name="Path 31" d="M14.563,16.021A1.418,1.418,0,1,1,15.981,14.6,1.418,1.418,0,0,1,14.563,16.021Z" transform="translate(-2.3 -2.307)" fill-rule="evenodd" opacity="0.3"/>
</svg>
