<svg xmlns="http://www.w3.org/2000/svg" width="19.271" height="19.271" viewBox="0 0 19.271 19.271">
  <path id="cancel" d="M12.408,9.944a.425.425,0,0,1,0-.616l6.6-6.6a.951.951,0,0,0,.264-.616.951.951,0,0,0-.264-.616L17.775.264A.951.951,0,0,0,17.159,0a.8.8,0,0,0-.616.264l-6.6,6.6a.425.425,0,0,1-.616,0l-6.6-6.6A.951.951,0,0,0,2.112,0,.951.951,0,0,0,1.5.264L.264,1.5A.951.951,0,0,0,0,2.112a.951.951,0,0,0,.264.616l6.6,6.6a.425.425,0,0,1,0,.616l-6.6,6.6a.851.851,0,0,0,0,1.232L1.5,19.007a.951.951,0,0,0,.616.264.951.951,0,0,0,.616-.264l6.6-6.6a.425.425,0,0,1,.616,0l6.6,6.6a.851.851,0,0,0,1.232,0l1.232-1.232a.851.851,0,0,0,0-1.232Z" fill="#d3d6d8"/>
</svg>
