<svg xmlns="http://www.w3.org/2000/svg" width="13.079" height="13.951" viewBox="0 0 13.079 13.951">
  <g id="download" transform="translate(-16)">
    <g id="Group_273" data-name="Group 273" transform="translate(19.052)">
      <g id="Group_272" data-name="Group 272">
        <path id="Path_712" data-name="Path 712" d="M134.934,6.359a.435.435,0,0,0-.4-.255h-1.744V.436A.436.436,0,0,0,132.358,0h-1.744a.436.436,0,0,0-.436.436V6.1h-1.744a.436.436,0,0,0-.328.723l3.052,3.488a.435.435,0,0,0,.656,0l3.052-3.488A.435.435,0,0,0,134.934,6.359Z" transform="translate(-127.998)" fill="#4981fd"/>
      </g>
    </g>
    <g id="Group_275" data-name="Group 275" transform="translate(16 9.591)">
      <g id="Group_274" data-name="Group 274">
        <path id="Path_713" data-name="Path 713" d="M27.335,352v2.616H17.744V352H16v3.488a.872.872,0,0,0,.872.872H28.207a.871.871,0,0,0,.872-.872V352Z" transform="translate(-16 -352)" fill="#4981fd"/>
      </g>
    </g>
  </g>
</svg>
