<?xml version="1.0" encoding="utf-8"?>
<!-- Generator: Adobe Illustrator 15.0.0, SVG Export Plug-In . SVG Version: 6.00 Build 0)  -->
<!DOCTYPE svg PUBLIC "-//W3C//DTD SVG 1.1//EN" "http://www.w3.org/Graphics/SVG/1.1/DTD/svg11.dtd">
<svg version="1.1" id="Layer_1" xmlns="http://www.w3.org/2000/svg" xmlns:xlink="http://www.w3.org/1999/xlink" x="0px" y="0px"
	 width="15.494px" height="15px" viewBox="0 0 15.494 15" enable-background="new 0 0 15.494 15" xml:space="preserve">
<g id="house-black-silhouette-without-door" transform="translate(0 -4.89)">
	<path id="Path_547" fill="#FFFFFF" d="M15.3,12.209c0.275-0.301,0.256-0.769-0.047-1.044c-0.004-0.004-0.009-0.009-0.014-0.013
		L8.315,5.093c-0.328-0.275-0.807-0.27-1.126,0.013l-6.948,6.369c-0.301,0.273-0.323,0.738-0.05,1.038
		c0.005,0.006,0.01,0.011,0.016,0.017l0.174,0.181c0.271,0.3,0.729,0.335,1.043,0.08l0.519-0.465v6.808
		c0,0.418,0.338,0.756,0.756,0.756l0,0h2.709c0.417,0,0.756-0.338,0.756-0.756l0,0v-4.762h3.454v4.763
		c-0.023,0.394,0.277,0.731,0.67,0.755c0.014,0,0.027,0.001,0.04,0.001H13.2c0.418,0,0.756-0.339,0.756-0.756l0,0v-6.713l0.32,0.281
		c0.177,0.155,0.548,0.031,0.828-0.278L15.3,12.209z"/>
</g>
</svg>
