<?xml version="1.0" encoding="utf-8"?>
<!-- Generator: Adobe Illustrator 15.0.0, SVG Export Plug-In . SVG Version: 6.00 Build 0)  -->
<!DOCTYPE svg PUBLIC "-//W3C//DTD SVG 1.1//EN" "http://www.w3.org/Graphics/SVG/1.1/DTD/svg11.dtd">
<svg version="1.1" id="Layer_1" xmlns="http://www.w3.org/2000/svg" xmlns:xlink="http://www.w3.org/1999/xlink" x="0px" y="0px"
	 width="17.646px" height="15.125px" viewBox="0 0 17.646 15.125" enable-background="new 0 0 17.646 15.125" xml:space="preserve">
<g id="first-aid-kit" transform="translate(0 -16.5)">
	<path id="Path_556" fill="#4981FD" d="M16.755,20.243H12.6v-2.826c0.009-0.497-0.386-0.907-0.883-0.917c-0.003,0-0.006,0-0.009,0
		H6.06c-0.511,0-0.929,0.407-0.942,0.917v2.826H0.942C0.43,20.241,0.012,20.649,0,21.16v9.549c0.013,0.511,0.431,0.918,0.942,0.916
		h15.813c0.497-0.004,0.896-0.411,0.892-0.908c0-0.003,0-0.006,0-0.008V21.16c0.009-0.497-0.386-0.908-0.883-0.917
		C16.76,20.243,16.758,20.243,16.755,20.243z M6.341,17.722h5.042v2.521H6.341V17.722z M11.994,27.195h-1.91V29.1H7.563v-1.91h-1.91
		v-2.516h1.91v-1.91h2.521v1.91h1.91V27.195z"/>
</g>
</svg>
