<svg id="Group_51" data-name="Group 51" xmlns="http://www.w3.org/2000/svg" width="17" height="17" viewBox="0 0 17 17">
  <rect id="Rectangle_390" data-name="Rectangle 390" width="17" height="17" fill="none"/>
  <path id="Path_23" data-name="Path 23" d="M4.049,15.887H15.936a1.049,1.049,0,0,0,1.049-1.049V7.147A1.049,1.049,0,0,0,15.936,6.1H8.594L6.8,4.307A1.049,1.049,0,0,0,6.062,4H4.049A1.049,1.049,0,0,0,3,5.049v9.79A1.049,1.049,0,0,0,4.049,15.887Z" transform="translate(-0.902 -1.203)" fill="#999" fill-rule="evenodd" opacity="0.3"/>
  <path id="Path_24" data-name="Path 24" d="M2.049,13.887H13.936a1.049,1.049,0,0,0,1.049-1.049V5.147A1.049,1.049,0,0,0,13.936,4.1H6.594L4.8,2.307A1.049,1.049,0,0,0,4.062,2H2.049A1.049,1.049,0,0,0,1,3.049v9.79A1.049,1.049,0,0,0,2.049,13.887Z" transform="translate(-0.301 -0.601)" fill="#999" fill-rule="evenodd"/>
</svg>
