<?xml version="1.0" encoding="utf-8"?>
<!-- Generator: Adobe Illustrator 15.0.0, SVG Export Plug-In . SVG Version: 6.00 Build 0)  -->
<!DOCTYPE svg PUBLIC "-//W3C//DTD SVG 1.1//EN" "http://www.w3.org/Graphics/SVG/1.1/DTD/svg11.dtd">
<svg version="1.1" id="Layer_1" xmlns="http://www.w3.org/2000/svg" xmlns:xlink="http://www.w3.org/1999/xlink" x="0px" y="0px"
	 width="18.119px" height="13.578px" viewBox="0 0 18.119 13.578" enable-background="new 0 0 18.119 13.578" xml:space="preserve">
<g id="open-folder" transform="translate(0 -67.229)">
	<g id="Group_210" transform="translate(0 67.229)">
		<path id="Path_551" fill="#FFFFFF" d="M4.889,6.63c0.592-0.289,1.241-0.445,1.9-0.458h8.022V4.629
			c-0.008-1.19-0.971-2.153-2.16-2.16H7.406V2.16C7.413,1.586,7.183,1.035,6.77,0.637C6.372,0.223,5.82-0.007,5.246,0H2.16
			C1.586-0.007,1.034,0.223,0.636,0.637C0.223,1.035-0.007,1.586,0,2.16v9.257c0,0.026,0,0.065,0,0.121c0,0.055,0,0.095,0,0.12
			L0.048,11.6l3.25-3.817C3.737,7.285,4.28,6.892,4.889,6.63z"/>
		<path id="Path_552" fill="#FFFFFF" d="M17.86,7.532c-0.182-0.087-0.381-0.13-0.582-0.126H6.789
			c-0.48,0.014-0.953,0.13-1.384,0.342C4.961,7.938,4.564,8.223,4.243,8.582L1.003,12.4c-0.174,0.168-0.281,0.396-0.3,0.638
			c-0.009,0.178,0.093,0.343,0.256,0.414c0.182,0.086,0.382,0.129,0.583,0.125h10.493c0.479-0.015,0.952-0.13,1.384-0.343
			c0.443-0.188,0.841-0.474,1.162-0.834l3.24-3.818c0.174-0.168,0.281-0.395,0.3-0.637C18.129,7.768,18.024,7.602,17.86,7.532z"/>
	</g>
</g>
</svg>
