<svg xmlns="http://www.w3.org/2000/svg" width="15.748" height="20.998" viewBox="0 0 15.748 20.998">
  <g id="lock" transform="translate(-64)">
    <g id="Group_202" data-name="Group 202" transform="translate(64)">
      <path id="Path_511" data-name="Path 511" d="M79.311,7.874H78V6.124a6.124,6.124,0,0,0-12.249,0v1.75H64.437A.437.437,0,0,0,64,8.312V19.248A1.752,1.752,0,0,0,65.75,21H78a1.752,1.752,0,0,0,1.75-1.75V8.312A.437.437,0,0,0,79.311,7.874Zm-6.127,9.138a.438.438,0,0,1-.435.486H71a.438.438,0,0,1-.435-.486l.276-2.482a1.731,1.731,0,0,1-.716-1.407,1.75,1.75,0,1,1,3.5,0,1.731,1.731,0,0,1-.716,1.407Zm2.19-9.138h-7V6.124a3.5,3.5,0,0,1,7,0Z" transform="translate(-64)" fill="#adb0b3"/>
    </g>
  </g>
</svg>
