<svg xmlns="http://www.w3.org/2000/svg" width="22.474" height="20.119" viewBox="0 0 22.474 20.119">
  <g id="office-clip" transform="translate(0 -20.713)">
    <g id="Group_201" data-name="Group 201" transform="translate(0 20.713)">
      <path id="Path_509" data-name="Path 509" d="M20.331,22.969l0,0a7.673,7.673,0,0,0-5.1-2.254,6.8,6.8,0,0,0-4.843,2L1.6,31.5a5.47,5.47,0,0,0,0,7.732h0a5.434,5.434,0,0,0,3.866,1.6h0a5.431,5.431,0,0,0,3.864-1.6l7.8-7.8A3.975,3.975,0,0,0,18.3,28.724a3.613,3.613,0,0,0-1.128-2.606,3.653,3.653,0,0,0-2.9-1.156,3.867,3.867,0,0,0-2.451,1.147L5.47,32.458a1.137,1.137,0,0,0,1.607,1.607l6.349-6.349a1.62,1.62,0,0,1,1-.487,1.452,1.452,0,0,1,1.136.5,1.392,1.392,0,0,1,.462.993,1.678,1.678,0,0,1-.5,1.1l-7.8,7.8a3.171,3.171,0,0,1-2.256.934H5.464a3.175,3.175,0,0,1-2.256-.934h0a3.2,3.2,0,0,1,0-4.517l8.783-8.783a4.544,4.544,0,0,1,3.235-1.338,5.454,5.454,0,0,1,3.5,1.589h0A5,5,0,0,1,20.2,27.96,4.543,4.543,0,0,1,18.862,31.2l-3.068,3.068a1.136,1.136,0,0,0,0,1.607h0a1.136,1.136,0,0,0,1.607,0L20.47,32.8a6.8,6.8,0,0,0,2-4.843A7.25,7.25,0,0,0,20.331,22.969Z" transform="translate(0 -20.713)" fill="#adb0b3"/>
    </g>
  </g>
</svg>
