<?xml version="1.0" encoding="utf-8"?>
<!-- Generator: Adobe Illustrator 15.0.0, SVG Export Plug-In . SVG Version: 6.00 Build 0)  -->
<!DOCTYPE svg PUBLIC "-//W3C//DTD SVG 1.1//EN" "http://www.w3.org/Graphics/SVG/1.1/DTD/svg11.dtd">
<svg version="1.1" id="Layer_1" xmlns="http://www.w3.org/2000/svg" xmlns:xlink="http://www.w3.org/1999/xlink" x="0px" y="0px"
	 width="18.646px" height="15.836px" viewBox="0 0 18.646 15.836" enable-background="new 0 0 18.646 15.836" xml:space="preserve">
<g id="line-chart" transform="translate(0 -36.671)">
	<g id="Group_212" transform="translate(0 36.671)">
		<path id="Path_557" fill="#BA1818" d="M1.264,12.477V15.5c0,0.186,0.149,0.336,0.337,0.336h2.337c0.186,0,0.336-0.15,0.337-0.336
			v-5.316l-1.7,1.699C2.223,12.232,1.759,12.443,1.264,12.477z"/>
		<path id="Path_558" fill="#BA1818" d="M5.44,10.145V15.5c0,0.186,0.15,0.336,0.337,0.336h2.337c0.186,0,0.337-0.15,0.337-0.336
			v-3.154c-0.528-0.01-1.033-0.225-1.406-0.6L5.44,10.145z"/>
		<path id="Path_559" fill="#BA1818" d="M9.615,12.014v3.482c0.001,0.186,0.151,0.337,0.337,0.338h2.337
			c0.188-0.001,0.337-0.152,0.337-0.338V9.064l-2.678,2.679C9.847,11.846,9.735,11.936,9.615,12.014z"/>
		<path id="Path_560" fill="#BA1818" d="M16.576,5.114l-2.785,2.785v7.6c0.001,0.187,0.151,0.337,0.337,0.338h2.337
			c0.188-0.001,0.337-0.151,0.337-0.338V5.325c-0.075-0.065-0.134-0.123-0.176-0.161L16.576,5.114z"/>
		<path id="Path_561" fill="#BA1818" d="M18.488,0.18C18.356,0.053,18.177-0.012,17.994,0h-0.061c-1.088,0.05-2.173,0.1-3.262,0.153
			c-0.183-0.01-0.361,0.052-0.5,0.172c-0.05,0.05-0.09,0.11-0.117,0.176c-0.109,0.24-0.038,0.523,0.172,0.682l0.271,0.276
			c0.188,0.192,0.379,0.383,0.571,0.571L8.493,8.607L5.539,5.654C5.173,5.287,4.578,5.287,4.211,5.653c0,0,0,0.001-0.001,0.001
			l-3.934,3.93c-0.367,0.367-0.367,0.961-0.001,1.328c0,0,0.001,0.001,0.001,0.002l0.176,0.176c0.366,0.367,0.961,0.367,1.328,0
			h0.001l3.092-3.091l2.954,2.955c0.368,0.366,0.965,0.366,1.333,0l7.417-7.417l0.839,0.835c0.11,0.138,0.272,0.224,0.448,0.238
			c0.094-0.001,0.187-0.026,0.268-0.073c0.061-0.032,0.113-0.072,0.161-0.119c0.134-0.148,0.205-0.341,0.2-0.54
			c0.031-0.7,0.065-1.41,0.1-2.118l0.052-1.061C18.668,0.511,18.611,0.322,18.488,0.18z"/>
	</g>
</g>
</svg>
