<svg id="Group_52" data-name="Group 52" xmlns="http://www.w3.org/2000/svg" width="21" height="21" viewBox="0 0 21 21">
  <path id="Path_38" data-name="Path 38" d="M0,0H21V21H0Z" fill="none" fill-rule="evenodd"/>
  <path id="Path_39" data-name="Path 39" d="M4.625,1h6.019a1.312,1.312,0,0,1,.848.31L15.66,4.836a1.312,1.312,0,0,1,.465,1V16.823c0,1.567-.018,1.677-1.625,1.677H4.625C3.018,18.5,3,18.39,3,16.823V2.677C3,1.11,3.018,1,4.625,1Zm2.75,9.625a.875.875,0,0,0,0,1.75H13.5a.875.875,0,0,0,0-1.75Zm0,3.5a.875.875,0,0,0,0,1.75H10a.875.875,0,0,0,0-1.75Z" transform="translate(-0.375 -0.125)" fill="#999" opacity="0.3"/>
  <path id="Path_40" data-name="Path 40" d="M6.625,3h6.894a1.312,1.312,0,0,1,.848.31l4.168,3.526a1.312,1.312,0,0,1,.465,1V18.823c0,1.567-.018,1.677-1.625,1.677H6.625C5.018,20.5,5,20.39,5,18.823V4.677C5,3.11,5.018,3,6.625,3Zm1,7.875a.875.875,0,0,0,0,1.75H13.75a.875.875,0,0,0,0-1.75Zm0,3.5a.875.875,0,0,0,0,1.75H10.25a.875.875,0,0,0,0-1.75Z" transform="translate(-0.625 -0.375)" fill="#999"/>
</svg>
