<?xml version="1.0" encoding="utf-8"?>
<!-- Generator: Adobe Illustrator 15.0.0, SVG Export Plug-In . SVG Version: 6.00 Build 0)  -->
<!DOCTYPE svg PUBLIC "-//W3C//DTD SVG 1.1//EN" "http://www.w3.org/Graphics/SVG/1.1/DTD/svg11.dtd">
<svg version="1.1" id="Layer_1" xmlns="http://www.w3.org/2000/svg" xmlns:xlink="http://www.w3.org/1999/xlink" x="0px" y="0px"
	 width="16.262px" height="18px" viewBox="0 -4.777 16.262 18" enable-background="new 0 -4.777 16.262 18" xml:space="preserve">
<g id="tasks-list" transform="translate(0 -54.819)">
	<g id="Group_211" transform="translate(0 54.819)">
		<path id="Path_553" fill="#BA1818" d="M15.681,4.9h-15.1C0.427,4.899,0.28,4.962,0.173,5.072C0.062,5.179-0.001,5.327,0.001,5.481
			v2.323c-0.002,0.153,0.061,0.302,0.172,0.408c0.105,0.11,0.254,0.174,0.408,0.173h15.1C16,8.381,16.258,8.124,16.262,7.804V5.481
			C16.258,5.162,16,4.905,15.681,4.9z M15.1,7.223H9.293V6.061H15.1V7.223z"/>
		<path id="Path_554" fill="#BA1818" d="M15.681,0.066h-15.1C0.427,0.064,0.28,0.126,0.173,0.238
			C0.062,0.344-0.001,0.491,0.001,0.646v2.318c-0.002,0.155,0.061,0.303,0.172,0.409C0.28,3.485,0.427,3.547,0.581,3.546h15.1
			C16,3.542,16.258,3.284,16.262,2.965V0.643C16.258,0.323,16,0.066,15.681,0.062V0.066z M15.1,2.388H5.808V1.229H15.1V2.388z"/>
		<path id="Path_555" fill="#BA1818" d="M16.089-4.605c-0.106-0.11-0.254-0.173-0.408-0.172h-15.1
			C0.427-4.778,0.28-4.715,0.173-4.605C0.062-4.497-0.002-4.35,0-4.196v2.323c-0.002,0.154,0.061,0.302,0.172,0.408
			C0.278-1.355,0.426-1.291,0.58-1.292h15.1c0.319-0.005,0.577-0.262,0.581-0.581v-2.322C16.263-4.35,16.2-4.497,16.089-4.605z
			 M15.1-2.453h-3.483v-1.161H15.1V-2.453z"/>
		<path id="Path_554_1_" fill="#BA1818" d="M15.681,9.743h-15.1C0.427,9.741,0.28,9.803,0.173,9.915
			c-0.111,0.106-0.174,0.254-0.172,0.408v2.318c-0.002,0.155,0.061,0.303,0.172,0.409c0.106,0.111,0.254,0.174,0.408,0.173h15.1
			c0.319-0.004,0.577-0.262,0.581-0.581V10.32C16.258,10.001,16,9.743,15.681,9.739V9.743z M15.1,12.065H5.808v-1.159H15.1V12.065z"
			/>
	</g>
</g>
</svg>
