<svg xmlns="http://www.w3.org/2000/svg" width="21.431" height="16.839" viewBox="0 0 21.431 16.839">
  <g id="tasks-list" transform="translate(0 -54.819)">
    <g id="Group_211" data-name="Group 211" transform="translate(0 54.819)">
      <path id="Path_553" data-name="Path 553" d="M20.665,347.177H.765a.736.736,0,0,0-.538.227.736.736,0,0,0-.227.538V351a.736.736,0,0,0,.227.538.737.737,0,0,0,.538.227h19.9a.776.776,0,0,0,.765-.766v-3.061a.776.776,0,0,0-.766-.766Zm-.765,3.062H12.246v-1.531H19.9v1.531Z" transform="translate(0 -334.931)" fill="#ff6ca3"/>
      <path id="Path_554" data-name="Path 554" d="M20.665,201H.765a.736.736,0,0,0-.538.227.736.736,0,0,0-.227.538v3.061a.736.736,0,0,0,.227.538.737.737,0,0,0,.538.227h19.9a.776.776,0,0,0,.765-.765v-3.061a.776.776,0,0,0-.766-.765Zm-.766,3.062H7.654v-1.531H19.9Z" transform="translate(0 -194.877)" fill="#ff6ca3"/>
      <path id="Path_555" data-name="Path 555" d="M21.2,55.046a.737.737,0,0,0-.538-.227H.765a.736.736,0,0,0-.538.227A.736.736,0,0,0,0,55.584v3.061a.736.736,0,0,0,.227.538.736.736,0,0,0,.538.227h19.9a.776.776,0,0,0,.765-.765V55.584A.737.737,0,0,0,21.2,55.046Zm-1.3,2.834H15.308V56.35H19.9Z" transform="translate(0 -54.819)" fill="#ff6ca3"/>
    </g>
  </g>
</svg>
