<svg id="Group_50" data-name="Group 50" xmlns="http://www.w3.org/2000/svg" width="24" height="24" viewBox="0 0 24 24">
  <path id="Path_35" data-name="Path 35" d="M0,0H24V24H0Z" fill="none" fill-rule="evenodd"/>
  <path id="Path_36" data-name="Path 36" d="M5.857,2h7.879a1.5,1.5,0,0,1,.969.355l4.764,4.029A1.5,1.5,0,0,1,20,7.529V20.083C20,21.874,19.98,22,18.143,22H5.857C4.02,22,4,21.874,4,20.083V3.917C4,2.126,4.02,2,5.857,2Zm5.018,13.75a.946.946,0,0,0,.671-.288l3.833-3.833a.949.949,0,0,0-1.342-1.342L10.875,13.45,9.629,12.2a.949.949,0,0,0-1.342,1.342L10.2,15.462A.946.946,0,0,0,10.875,15.75Z" fill="#999" opacity="0.3"/>
  <path id="Path_37" data-name="Path 37" d="M10.875,15.75a.946.946,0,0,1-.671-.288L8.288,13.546A.949.949,0,0,1,9.629,12.2l1.246,1.246,3.163-3.162a.949.949,0,0,1,1.342,1.342l-3.833,3.833A.946.946,0,0,1,10.875,15.75Z" fill="#999" fill-rule="evenodd"/>
</svg>
