<?xml version="1.0" encoding="utf-8"?>
<!-- Generator: Adobe Illustrator 15.0.0, SVG Export Plug-In . SVG Version: 6.00 Build 0)  -->
<!DOCTYPE svg PUBLIC "-//W3C//DTD SVG 1.1//EN" "http://www.w3.org/Graphics/SVG/1.1/DTD/svg11.dtd">
<svg version="1.1" id="Layer_1" xmlns="http://www.w3.org/2000/svg" xmlns:xlink="http://www.w3.org/1999/xlink" x="0px" y="0px"
	 width="16.262px" height="12.777px" viewBox="0 0 16.262 12.777" enable-background="new 0 0 16.262 12.777" xml:space="preserve">
<g id="tasks-list" transform="translate(0 -54.819)">
	<g id="Group_211" transform="translate(0 54.819)">
		<path id="Path_553" fill="#4981FD" d="M15.681,9.292h-15.1C0.427,9.291,0.28,9.353,0.173,9.464
			C0.062,9.571-0.001,9.719,0.001,9.873v2.323c-0.002,0.153,0.061,0.302,0.172,0.408c0.106,0.111,0.254,0.174,0.408,0.173h15.1
			c0.319-0.005,0.577-0.262,0.581-0.581V9.873C16.258,9.553,16,9.297,15.681,9.292z M15.1,11.615H9.293v-1.162H15.1V11.615z"/>
		<path id="Path_554" fill="#4981FD" d="M15.681,4.646h-15.1C0.427,4.644,0.28,4.707,0.173,4.818
			C0.062,4.925-0.001,5.072,0.001,5.226v2.319C-0.001,7.7,0.062,7.847,0.173,7.954C0.28,8.065,0.427,8.128,0.581,8.127h15.1
			C16,8.123,16.258,7.865,16.262,7.546V5.223C16.258,4.904,16,4.646,15.681,4.642V4.646z M15.1,6.969H5.808v-1.16H15.1V6.969z"/>
		<path id="Path_555" fill="#4981FD" d="M16.089,0.172C15.983,0.061,15.835-0.001,15.681,0h-15.1
			C0.427-0.001,0.28,0.061,0.173,0.172C0.062,0.279-0.002,0.427,0,0.581v2.323c-0.002,0.154,0.061,0.302,0.172,0.408
			c0.106,0.11,0.254,0.173,0.408,0.172h15.1c0.319-0.005,0.577-0.262,0.581-0.581V0.581C16.263,0.427,16.2,0.279,16.089,0.172z
			 M15.1,2.323h-3.484V1.162H15.1V2.323z"/>
	</g>
</g>
</svg>
