<svg xmlns="http://www.w3.org/2000/svg" width="35.702" height="33" viewBox="0 0 35.702 33">
  <g id="upload_2_" data-name="upload (2)" transform="translate(0 -18.4)">
    <g id="Group_186" data-name="Group 186" transform="translate(0 18.4)">
      <path id="Path_494" data-name="Path 494" d="M29.036,27.019A10.342,10.342,0,0,0,9.874,23.583a5.924,5.924,0,0,0-1.087-.1,5.668,5.668,0,0,0-5.66,5.66,6.187,6.187,0,0,0,.117,1.175A7.877,7.877,0,0,0,0,36.666a8.421,8.421,0,0,0,2.136,5.572A7.625,7.625,0,0,0,7.422,44.9h6.372a.991.991,0,0,0,0-1.982H7.51a6.251,6.251,0,0,1-5.528-6.255A5.884,5.884,0,0,1,4.9,31.593a1,1,0,0,0,.433-1.2,3.6,3.6,0,0,1-.22-1.263,3.685,3.685,0,0,1,3.678-3.678,3.615,3.615,0,0,1,1.255.22,1,1,0,0,0,1.241-.507,8.359,8.359,0,0,1,15.88,2.753.99.99,0,0,0,.822.881,7.145,7.145,0,0,1-.675,14.11H21.9a.991.991,0,0,0,0,1.982h5.521a8.783,8.783,0,0,0,5.888-2.907,9.137,9.137,0,0,0-4.273-14.962Z" transform="translate(0 -18.4)" fill="#4981fd"/>
      <path id="Path_495" data-name="Path 495" d="M170.41,192.345a.988.988,0,0,0,0-1.4l-5.249-5.249a1,1,0,0,0-.7-.294.972.972,0,0,0-.7.294l-5.249,5.249a.995.995,0,0,0,.7,1.7.967.967,0,0,0,.7-.294l3.561-3.561v16.364a.991.991,0,1,0,1.982,0V188.784l3.561,3.561A.979.979,0,0,0,170.41,192.345Z" transform="translate(-146.609 -173.14)" fill="#4981fd"/>
    </g>
  </g>
</svg>
