<svg xmlns="http://www.w3.org/2000/svg" width="16" height="22" viewBox="0 0 16 22">
  <g id="incidents-active" transform="translate(-4 -1)">
    <path id="Path_15" data-name="Path 15" d="M8,3v.5A1.5,1.5,0,0,0,9.5,5h5A1.5,1.5,0,0,0,16,3.5V3h2a2,2,0,0,1,2,2V21a2,2,0,0,1-2,2H6a2,2,0,0,1-2-2V5A2,2,0,0,1,6,3Z" fill="#7e89b9" opacity="0.3"/>
    <path id="Path_16" data-name="Path 16" d="M11,2a1,1,0,1,1,2,0h1.5a.5.5,0,0,1,.5.5v1a.5.5,0,0,1-.5.5h-5A.5.5,0,0,1,9,3.5v-1A.5.5,0,0,1,9.5,2Z" fill="#b10000"/>
    <rect id="Rectangle_37" data-name="Rectangle 37" width="5" height="2" rx="1" transform="translate(7 10)" fill="#b10000" opacity="0.3"/>
    <rect id="Rectangle_38" data-name="Rectangle 38" width="9" height="2" rx="1" transform="translate(7 14)" fill="#b10000" opacity="0.3"/>
  </g>
</svg>
