<svg xmlns="http://www.w3.org/2000/svg" width="15.129" height="15.13" viewBox="0 0 15.129 15.13">
  <g id="masters-active" transform="translate(-1.67 -1.668)">
    <path id="Path_144" data-name="Path 144" d="M2.467,10.135,4.135,8.467a1.179,1.179,0,0,1,1.668,0L7.47,10.135a1.179,1.179,0,0,1,0,1.668L5.8,13.47a1.179,1.179,0,0,1-1.668,0L2.467,11.8a1.179,1.179,0,0,1,0-1.665Zm9.435,0L13.57,8.467a1.179,1.179,0,0,1,1.668,0l1.668,1.668a1.179,1.179,0,0,1,0,1.668L15.238,13.47a1.179,1.179,0,0,1-1.668,0L11.9,11.8a1.179,1.179,0,0,1,0-1.665Z" transform="translate(-0.453 -1.736)" fill="#7e89b9" opacity="0.3"/>
    <path id="Path_145" data-name="Path 145" d="M8.467,13.57l1.668-1.67a1.179,1.179,0,0,1,1.668,0l1.667,1.67a1.179,1.179,0,0,1,0,1.668L11.8,16.906a1.179,1.179,0,0,1-1.668,0L8.467,15.238a1.179,1.179,0,0,1,0-1.668Zm0-9.435,1.668-1.668a1.179,1.179,0,0,1,1.668,0L13.47,4.135a1.179,1.179,0,0,1,0,1.668L11.8,7.47a1.179,1.179,0,0,1-1.668,0L8.467,5.8a1.179,1.179,0,0,1,0-1.665Z" transform="translate(-1.736 -0.453)" fill="#b10000"/>
  </g>
</svg>
