<?xml version="1.0" encoding="utf-8"?>
<!-- Generator: Adobe Illustrator 15.0.0, SVG Export Plug-In . SVG Version: 6.00 Build 0)  -->
<!DOCTYPE svg PUBLIC "-//W3C//DTD SVG 1.1//EN" "http://www.w3.org/Graphics/SVG/1.1/DTD/svg11.dtd">
<svg version="1.1" id="Layer_1" xmlns="http://www.w3.org/2000/svg" xmlns:xlink="http://www.w3.org/1999/xlink" x="0px" y="0px"
	 width="26px" height="26px" viewBox="0 0 26 26" enable-background="new 0 0 26 26" xml:space="preserve">
<g>
	<g>
		<g id="Menu_1_">
			<path fill="#FFFFFF" d="M0.772,8.146H25.04c0.447,0,0.809-0.362,0.809-0.809c0-0.447-0.361-0.81-0.809-0.81H0.772
				c-0.447,0-0.809,0.362-0.809,0.81C-0.037,7.784,0.325,8.146,0.772,8.146z"/>
			<path fill="#FFFFFF" d="M25.04,12.191H8.861c-0.447,0-0.809,0.362-0.809,0.809s0.362,0.809,0.809,0.809H25.04
				c0.447,0,0.809-0.362,0.809-0.809S25.487,12.191,25.04,12.191z"/>
		</g>
	</g>
	<path fill="#FFFFFF" d="M25.04,17.854H0.772c-0.447,0-0.809,0.362-0.809,0.81c0,0.446,0.362,0.809,0.809,0.809H25.04
		c0.447,0,0.809-0.362,0.809-0.809C25.849,18.216,25.487,17.854,25.04,17.854z"/>
</g>
</svg>
