<svg xmlns="http://www.w3.org/2000/svg" width="15.835" height="18.209" viewBox="0 0 15.835 18.209">
  <g id="my-users" transform="translate(-1.582 -0.791)">
    <path id="Path_148" data-name="Path 148" d="M5.167,5.75A1.583,1.583,0,1,0,3.583,4.167,1.583,1.583,0,0,0,5.167,5.75Zm0,1.583A3.167,3.167,0,1,1,8.333,4.167,3.167,3.167,0,0,1,5.167,7.333Z" transform="translate(-0.417 -0.208)" fill="#7e89b9"/>
    <path id="Path_149" data-name="Path 149" d="M6.583,10.535v4.382A1.583,1.583,0,0,0,8.167,16.5h4.75v1.583H8.167A3.167,3.167,0,0,1,5,14.917V7H6.583v.792A1.583,1.583,0,0,0,8.167,9.375h4.75v1.583H8.167a3.152,3.152,0,0,1-1.584-.423Z" transform="translate(-1.042 -1.458)" fill="#7e89b9" opacity="0.3"/>
    <path id="Path_150" data-name="Path 150" d="M17.167,20.75a1.583,1.583,0,1,0-1.583-1.583A1.583,1.583,0,0,0,17.167,20.75Zm0,1.583a3.167,3.167,0,1,1,3.167-3.167A3.167,3.167,0,0,1,17.167,22.333Z" transform="translate(-2.917 -3.333)" fill="#7e89b9"/>
    <path id="Path_151" data-name="Path 151" d="M17.167,11.75a1.583,1.583,0,1,0-1.583-1.583A1.583,1.583,0,0,0,17.167,11.75Zm0,1.583a3.167,3.167,0,1,1,3.167-3.167A3.167,3.167,0,0,1,17.167,13.333Z" transform="translate(-2.917 -1.458)" fill="#7e89b9"/>
  </g>
</svg>
