<svg xmlns="http://www.w3.org/2000/svg" xmlns:xlink="http://www.w3.org/1999/xlink" width="192" height="256" viewBox="0 0 192 256">
  <defs>
    <linearGradient id="linear-gradient" x1="-0.28" y1="1.245" x2="-0.229" y2="1.227" gradientUnits="objectBoundingBox">
      <stop offset="0" stop-color="#fff" stop-opacity="0.2"/>
      <stop offset="1" stop-color="#fff" stop-opacity="0"/>
    </linearGradient>
  </defs>
  <g id="no-permission" transform="translate(-64)">
    <path id="Path_53" data-name="Path 53" d="M250.667,96h-16V74.667a74.667,74.667,0,0,0-149.333,0V96h-16A5.33,5.33,0,0,0,64,101.334V234.667A21.354,21.354,0,0,0,85.333,256H234.667A21.354,21.354,0,0,0,256,234.667V101.334A5.33,5.33,0,0,0,250.667,96Zm-48,0H117.334V74.667a42.667,42.667,0,1,1,85.333,0Z" fill="#303c42"/>
    <path id="Path_54" data-name="Path 54" d="M128,85.333a64,64,0,0,1,128,0v21.334H245.333V85.333a53.333,53.333,0,1,0-106.667,0v21.334H128Z" transform="translate(-32 -10.666)" fill="#f2f2f2"/>
    <path id="Path_55" data-name="Path 55" d="M256,341.333A10.681,10.681,0,0,1,245.334,352H96a10.681,10.681,0,0,1-10.667-10.667v-128H256Z" transform="translate(-10.667 -106.667)" fill="#ffca28"/>
    <path id="Path_56" data-name="Path 56" d="M106.667,341.333v-128H85.333v128A10.681,10.681,0,0,0,96,352h18.667C110.257,352,106.667,347.214,106.667,341.333Z" transform="translate(-10.667 -106.667)" fill="#fff" opacity="0.2"/>
    <path id="Path_57" data-name="Path 57" d="M376,213.333v128c0,5.88-3.59,10.667-8,10.667h18.667a10.681,10.681,0,0,0,10.667-10.667v-128H376Z" transform="translate(-152 -106.666)" opacity="0.1"/>
    <path id="Path_58" data-name="Path 58" d="M222.063,315.823,218.7,346.078A5.335,5.335,0,0,0,224,352h21.333a5.335,5.335,0,0,0,5.3-5.922l-3.365-30.255A21.1,21.1,0,0,0,256,298.667a21.334,21.334,0,0,0-42.667,0A21.1,21.1,0,0,0,222.063,315.823Z" transform="translate(-74.666 -138.667)" fill="#303c42"/>
    <path id="Path_59" data-name="Path 59" d="M245.334,298.667a10.63,10.63,0,0,1,4.6,20.229,5.337,5.337,0,0,0-2.979,5.391L250.042,352h-9.417l3.083-27.714a5.336,5.336,0,0,0-2.979-5.391,10.63,10.63,0,0,1,4.6-20.229Z" transform="translate(-85.334 -149.333)" fill="#5c6671"/>
    <path id="Path_60" data-name="Path 60" d="M241.191,319.333A10.4,10.4,0,0,1,240,314.666,10.681,10.681,0,0,1,250.666,304a10.512,10.512,0,0,1,4.354.979A10.634,10.634,0,1,0,240.729,318.9C240.93,318.993,241.008,319.215,241.191,319.333Z" transform="translate(-85.333 -149.333)" opacity="0.1"/>
    <path id="Path_61" data-name="Path 61" d="M254.255,359.923l-1.24-11.144c-.35-.3-.562-.733-.994-.943a10.888,10.888,0,0,1-2.756-1.956,5.123,5.123,0,0,1,.4,2.013l-3.083,27.714h5.926Z" transform="translate(-91.291 -172.94)" opacity="0.1"/>
    <path id="Path_62" data-name="Path 62" d="M250.667,96h-16V74.667a74.667,74.667,0,0,0-149.333,0V96h-16A5.33,5.33,0,0,0,64,101.334V234.667A21.354,21.354,0,0,0,85.333,256H234.667A21.354,21.354,0,0,0,256,234.667V101.334A5.33,5.33,0,0,0,250.667,96Zm-48,0H117.334V74.667a42.667,42.667,0,1,1,85.333,0Z" fill="url(#linear-gradient)"/>
  </g>
</svg>
