<svg xmlns="http://www.w3.org/2000/svg" width="16" height="20.286" viewBox="0 0 16 20.286">
  <g id="roles-and-permissions" transform="translate(-356 -186.535)">
    <path id="Path_141" data-name="Path 141" d="M4,4l7.631-1.431a2,2,0,0,1,.737,0L20,4v9.283A8.511,8.511,0,0,1,16,20.5l-3.47,2.169a1,1,0,0,1-1.06,0L8,20.5a8.511,8.511,0,0,1-4-7.217Z" transform="translate(352 184)" fill="#7e89b9" opacity="0.3"/>
    <path id="Path_142" data-name="Path 142" d="M10.875,15.75a.946.946,0,0,1-.671-.288L8.288,13.546A.95.95,0,1,1,9.629,12.2l1.246,1.246,3.163-3.162a.949.949,0,1,1,1.342,1.342l-3.833,3.833A.946.946,0,0,1,10.875,15.75Z" transform="translate(352.167 183.25)" fill="#7e89b9"/>
  </g>
</svg>
