<svg xmlns="http://www.w3.org/2000/svg" xmlns:xlink="http://www.w3.org/1999/xlink" width="505" height="178" viewBox="0 0 505 178">
  <defs>
    <clipPath id="clip-path">
      <rect id="Rectangle_18" data-name="Rectangle 18" width="505" height="178" transform="translate(3808 1191)" fill="#fff"/>
    </clipPath>
  </defs>
  <g id="Mask_Group_9" data-name="Mask Group 9" transform="translate(-3808 -1191)" clip-path="url(#clip-path)">
    <g id="Group_9" data-name="Group 9">
      <path id="Path_342" data-name="Path 342" d="M386.18,12.238C375.576-1.727,356.818.075,345.71.075h-36.1a6.217,6.217,0,0,0-4.563,1.878,6.522,6.522,0,0,0-1.883,4.833V26.666a10.748,10.748,0,0,0,1.883,6.252,6.23,6.23,0,0,0,4.563,1.874h42.983a5.491,5.491,0,0,1,5.464,4.6l.027.095v.275a6.84,6.84,0,0,1,.068.82V83.073a6.2,6.2,0,0,0,1.865,4.388,6.527,6.527,0,0,0,4.833,1.883h19.87a10.748,10.748,0,0,0,6.252-1.883,6.23,6.23,0,0,0,1.874-4.563V52.54h.049v-.9c0-11.64.82-29.456-6.721-39.4" transform="translate(3920.077 1190.997)" fill="#92d050"/>
      <path id="School" d="M52.751-22.629q0-4.011-3.973-6.32T36.025-33.074Q6.812-39.2,6.812-57.9q0-10.9,9.044-18.2t23.651-7.3q15.591,0,24.938,7.341A23.136,23.136,0,0,1,73.792-56.99H51.919a10.583,10.583,0,0,0-3.027-7.758q-3.027-3.065-9.46-3.065-5.525,0-8.552,2.5a7.884,7.884,0,0,0-3.027,6.357A6.74,6.74,0,0,0,31.3-53.092q3.444,2.233,11.617,3.86a94.889,94.889,0,0,1,13.774,3.671Q74.019-39.2,74.019-23.538q0,11.2-9.612,18.126T39.583,1.514A43.307,43.307,0,0,1,21.3-2.157,30.667,30.667,0,0,1,8.779-12.223,23.389,23.389,0,0,1,4.238-26.035H24.976A11.419,11.419,0,0,0,29.29-17.1Q33.3-14,40.037-14q6.282,0,9.5-2.384A7.418,7.418,0,0,0,52.751-22.629Zm69.4,6.509a14.346,14.346,0,0,0,9.839-3.33,11.668,11.668,0,0,0,3.936-8.855h20.51a28.057,28.057,0,0,1-4.541,15.25A29.964,29.964,0,0,1,139.674-2.308a38.254,38.254,0,0,1-17.142,3.822q-17.559,0-27.7-11.163T84.69-40.491v-1.438q0-18.921,10.066-30.2T122.38-83.4q15.364,0,24.635,8.741t9.423,23.273h-20.51a14.907,14.907,0,0,0-3.936-10.331A13.158,13.158,0,0,0,122-65.693q-7.644,0-11.542,5.563t-3.9,18.051v2.271q0,12.639,3.86,18.164T122.153-16.121Zm68.115-56.838q8.7-10.444,21.873-10.444,26.641,0,27.019,30.955V0H217.288V-51.843q0-7.039-3.027-10.406t-10.066-3.368q-9.612,0-13.926,7.417V0H168.4V-116.25h21.873ZM252.253-41.7a48.565,48.565,0,0,1,4.692-21.721,34.351,34.351,0,0,1,13.51-14.758A39.414,39.414,0,0,1,290.928-83.4q16.575,0,27.057,10.142t11.693,27.549l.151,5.6q0,18.845-10.52,30.236t-28.23,11.39q-17.71,0-28.268-11.353T252.253-40.718Zm21.873,1.589q0,11.655,4.39,17.823t12.563,6.168a14.522,14.522,0,0,0,12.412-6.093q4.465-6.093,4.465-19.489,0-11.428-4.465-17.71a14.522,14.522,0,0,0-12.563-6.282,14.285,14.285,0,0,0-12.412,6.244Q274.126-53.206,274.126-40.112ZM339.9-41.7a48.565,48.565,0,0,1,4.692-21.721A34.351,34.351,0,0,1,358.1-78.181,39.414,39.414,0,0,1,378.569-83.4q16.575,0,27.057,10.142t11.693,27.549l.151,5.6q0,18.845-10.52,30.236t-28.23,11.39q-17.71,0-28.268-11.353T339.9-40.718Zm21.873,1.589q0,11.655,4.39,17.823t12.563,6.168a14.522,14.522,0,0,0,12.412-6.093Q395.6-28.306,395.6-41.7q0-11.428-4.465-17.71a14.522,14.522,0,0,0-12.563-6.282,14.285,14.285,0,0,0-12.412,6.244Q361.768-53.206,361.768-40.112ZM454.026,0H432.078V-116.25h21.948Z" transform="translate(3804.118 1367.154)" fill="#2c3e6c"/>
    </g>
  </g>
</svg>
