<svg xmlns="http://www.w3.org/2000/svg" width="16" height="16" viewBox="0 0 16 16">
  <g id="score_card_actual-active" data-name="score card actual-active" transform="translate(-2 -2)">
    <path id="Path_171" data-name="Path 171" d="M17.273,10.808a.808.808,0,0,1,0-1.616H18A8.01,8.01,0,0,0,10.808,2v.727a.808.808,0,0,1-1.616,0V2A8.01,8.01,0,0,0,2,9.192h.727a.808.808,0,0,1,0,1.616H2A8.01,8.01,0,0,0,9.192,18v-.727a.808.808,0,0,1,1.616,0V18A8.01,8.01,0,0,0,18,10.808Z" fill="#ba1818" opacity="0.3"/>
    <path id="Path_172" data-name="Path 172" d="M15.365,9.748H12.7a1.888,1.888,0,0,0-.566-.566V5.708a.808.808,0,1,0-1.616,0V9.183a1.888,1.888,0,0,0-.566.566H9.708a.808.808,0,0,0,0,1.616h.242a1.888,1.888,0,0,0,.566.566v.242a.808.808,0,0,0,1.616,0V11.93a1.888,1.888,0,0,0,.566-.566h2.667a.808.808,0,1,0,0-1.616Z" transform="translate(-1.324 -0.557)" fill="#ba1818"/>
  </g>
</svg>
