<svg xmlns="http://www.w3.org/2000/svg" width="21" height="21" viewBox="0 0 21 21">
  <g id="score-card-ytd-active" transform="translate(0.408 0.408)">
    <rect id="Rectangle_394" data-name="Rectangle 394" width="21" height="21" transform="translate(-0.408 -0.408)" fill="none"/>
    <path id="Path_41" data-name="Path 41" d="M4.716,16.728h12.87a.858.858,0,0,1,0,1.716H3.858A.858.858,0,0,1,3,17.586V3.858a.858.858,0,1,1,1.716,0Z" transform="translate(-0.426 -0.426)" fill="#b10000"/>
    <path id="Path_42" data-name="Path 42" d="M8.484,13.522a.858.858,0,0,1-1.252-1.174L10.45,8.916a.858.858,0,0,1,1.183-.066l2.539,2.167,3.309-4.191A.858.858,0,1,1,18.827,7.89l-3.861,4.89a.858.858,0,0,1-1.23.121l-2.6-2.214Z" transform="translate(-0.994 -0.923)" fill="#7e89b9" opacity="0.3"/>
  </g>
</svg>
