<svg xmlns="http://www.w3.org/2000/svg" width="35.292" height="30.479" viewBox="0 0 35.292 30.479">
  <g id="Group_270" data-name="Group 270" transform="translate(-1.604 -3.208)">
    <path id="Path_23" data-name="Path 23" d="M5.406,31.271H32.677a2.406,2.406,0,0,0,2.406-2.406V11.219a2.406,2.406,0,0,0-2.406-2.406H15.833L11.726,4.7a2.406,2.406,0,0,0-1.7-.7H5.406A2.406,2.406,0,0,0,3,6.406V28.865A2.406,2.406,0,0,0,5.406,31.271Z" transform="translate(1.813 2.417)" fill="#ba1818" fill-rule="evenodd" opacity="0.3"/>
    <path id="Path_24" data-name="Path 24" d="M3.406,29.271H30.677a2.406,2.406,0,0,0,2.406-2.406V9.219a2.406,2.406,0,0,0-2.406-2.406H13.833L9.726,2.7a2.406,2.406,0,0,0-1.7-.7H3.406A2.406,2.406,0,0,0,1,4.406V26.865A2.406,2.406,0,0,0,3.406,29.271Z" transform="translate(0.604 1.208)" fill="#ba1818" fill-rule="evenodd"/>
  </g>
</svg>
