<svg xmlns="http://www.w3.org/2000/svg" width="15.711" height="12.044" viewBox="0 0 15.711 12.044">
  <g id="students" transform="translate(-0.645 -2.125)">
    <path id="Path_146" data-name="Path 146" d="M4.645,3.776A2.121,2.121,0,0,1,6.287,3h4.958a2.121,2.121,0,0,1,1.641.775l.045.024,3.336,1.926a.708.708,0,0,1,.259.968L15.353,8.724a.708.708,0,0,1-.968.259L13.37,8.4v5.936a.708.708,0,0,1-.708.708H4.87a.708.708,0,0,1-.708-.708V8.4l-1.015.586a.708.708,0,0,1-.968-.259L1.006,6.692a.708.708,0,0,1,.259-.968L4.6,3.8Z" transform="translate(-0.266 -0.875)" fill="#7e89b9" opacity="0.3"/>
    <path id="Path_147" data-name="Path 147" d="M9.655,3.158l-.417.626a.354.354,0,0,0,.082.48l1.149.861L9.785,9.908a.354.354,0,0,0,.1.3l1.041,1.041a.354.354,0,0,0,.5,0l1.041-1.041a.354.354,0,0,0,.1-.3l-.683-4.783,1.149-.861a.354.354,0,0,0,.082-.48L12.7,3.158A.354.354,0,0,0,12.4,3H9.95a.354.354,0,0,0-.3.158Z" transform="translate(-2.677 -0.875)" fill="#7e89b9"/>
  </g>
</svg>
