<svg xmlns="http://www.w3.org/2000/svg" width="15.988" height="16.219" viewBox="0 0 15.988 16.219">
  <g id="translate" transform="translate(-103.192 -29.631)">
    <path id="Path_203" data-name="Path 203" d="M108.343,36.319a9.966,9.966,0,0,1-2.7,1.548l-.267-.673a9.265,9.265,0,0,0,2.426-1.372,5.633,5.633,0,0,1-1.333-2.075h.774a5.07,5.07,0,0,0,1.1,1.59,4.61,4.61,0,0,0,1.362-2.475h-4.558V32.1H107.9v-.865h.765V32.1h2.757v.765h-.988a5.19,5.19,0,0,1-1.549,2.963c.129.1.268.206.414.308a.8.8,0,0,1,.639-.323h3.475a5.211,5.211,0,1,0-4.276,4.08V36.9a8.443,8.443,0,0,1-.8-.579Z" transform="translate(0)" fill="#c5c8d5"/>
    <g id="noun-translation-5735">
      <path id="Path_203-2" data-name="Path 203" d="M108.343,36.319a9.966,9.966,0,0,1-2.7,1.548l-.267-.673a9.265,9.265,0,0,0,2.426-1.372,5.633,5.633,0,0,1-1.333-2.075h.774a5.07,5.07,0,0,0,1.1,1.59,4.61,4.61,0,0,0,1.362-2.475h-4.558V32.1H107.9v-.865h.765V32.1h2.757v.765h-.988a5.19,5.19,0,0,1-1.549,2.963c.129.1.268.206.414.308.146-.195-.162.766-.162.766a8.443,8.443,0,0,1-.8-.579Z" transform="translate(0)" fill="#3f4974"/>
      <path id="Path_204" data-name="Path 204" d="M421.112,313.19l-.975,2.685h1.951l-.959-2.685Z" transform="translate(-306.679 -274.374)" fill="#3f4974"/>
      <path id="Path_205" data-name="Path 205" d="M311.127,235.888h-8.09a.724.724,0,0,0-.724.724v8.09a.725.725,0,0,0,.724.724h8.09a.724.724,0,0,0,.724-.724v-8.09a.724.724,0,0,0-.724-.724Zm-2.177,7.566-.628-1.733h-2.435l-.645,1.733h-.782L306.7,237.7h.846l2.249,5.755Z" transform="translate(-192.672 -199.576)" fill="#3f4974"/>
    </g>
  </g>
</svg>
